{
  "accessors": [
    {
      "bufferView": 2,
      "componentType": 5126,
      "count": 6732,
      "max": [
        2.06322979927063,
        6.161081790924072,
        0.46013855934143066
      ],
      "min": [
        -2.0632309913635254,
        -0.4616764783859253,
        -0.4601396322250366
      ],
      "type": "VEC3"
    },
    {
      "bufferView": 2,
      "byteOffset": 80784,
      "componentType": 5126,
      "count": 6732,
      "max": [
        1.0,
        1.0,
        1.0
      ],
      "min": [
        -1.0,
        -1.0,
        -1.0
      ],
      "type": "VEC3"
    },
    {
      "bufferView": 1,
      "componentType": 5126,
      "count": 6732,
      "max": [
        0.9999998807907104,
        1.0000001192092896
      ],
      "min": [
        5.960464477539063e-08,
        5.960464477539063e-08
      ],
      "type": "VEC2"
    },
    {
      "bufferView": 0,
      "componentType": 5125,
      "count": 39216,
      "type": "SCALAR"
    },
    {
      "bufferView": 2,
      "byteOffset": 161568,
      "componentType": 5126,
      "count": 822,
      "max": [
        1.7256916761398315,
        5.719895839691162,
        0.12853991985321045
      ],
      "min": [
        -1.725692629814148,
        0.007383808493614197,
        -0.14266705513000488
      ],
      "type": "VEC3"
    },
    {
      "bufferView": 2,
      "byteOffset": 171432,
      "componentType": 5126,
      "count": 822,
      "max": [
        1.0,
        1.0,
        1.0
      ],
      "min": [
        -1.0,
        -1.0,
        -1.0
      ],
      "type": "VEC3"
    },
    {
      "bufferView": 1,
      "byteOffset": 53856,
      "componentType": 5126,
      "count": 822,
      "max": [
        0.9168143272399902,
        0.9984374642372131
      ],
      "min": [
        0.013203051872551441,
        0.0048441230319440365
      ],
      "type": "VEC2"
    },
    {
      "bufferView": 0,
      "byteOffset": 156864,
      "componentType": 5125,
      "count": 4176,
      "type": "SCALAR"
    },
    {
      "bufferView": 2,
      "byteOffset": 181296,
      "componentType": 5126,
      "count": 1220,
      "max": [
        1.56655752658844,
        5.9600372314453125,
        0.4102364778518677
      ],
      "min": [
        -1.56655752658844,
        -0.27031993865966797,
        -0.415153831243515
      ],
      "type": "VEC3"
    },
    {
      "bufferView": 2,
      "byteOffset": 195936,
      "componentType": 5126,
      "count": 1220,
      "max": [
        0.9238801002502441,
        0.9239298701286316,
        1.0
      ],
      "min": [
        -0.9238801002502441,
        -0.9239298701286316,
        -1.0
      ],
      "type": "VEC3"
    },
    {
      "bufferView": 1,
      "byteOffset": 60432,
      "componentType": 5126,
      "count": 1220,
      "max": [
        0.65625,
        1.0
      ],
      "min": [
        0.34375,
        0.6797040104866028
      ],
      "type": "VEC2"
    },
    {
      "bufferView": 0,
      "byteOffset": 173568,
      "componentType": 5125,
      "count": 3264,
      "type": "SCALAR"
    }
  ],
  "asset": {
    "extras": {
      "author": "AdiKoriat (https://sketchfab.com/AdiKoriat)",
      "license": "CC-BY-4.0 (http://creativecommons.org/licenses/by/4.0/)",
      "source": "https://sketchfab.com/3d-models/my-3d-bussiness-card-6417b959e5c640a8bab6a4c3c04d3f9a",
      "title": "My 3D Bussiness Card"
    },
    "generator": "Sketchfab-14.10.0",
    "version": "2.0"
  },
  "bufferViews": [
    {
      "buffer": 0,
      "byteLength": 186624,
      "name": "floatBufferViews",
      "target": 34963
    },
    {
      "buffer": 0,
      "byteLength": 70192,
      "byteOffset": 186624,
      "byteStride": 8,
      "name": "floatBufferViews",
      "target": 34962
    },
    {
      "buffer": 0,
      "byteLength": 210576,
      "byteOffset": 256816,
      "byteStride": 12,
      "name": "floatBufferViews",
      "target": 34962
    }
  ],
  "buffers": [
    {
      "byteLength": 467392,
      "uri": "scene.bin"
    }
  ],
  "extensionsUsed": [
    "KHR_materials_transmission"
  ],
  "images": [
    {
      "uri": "textures/Card_baseColor.png"
    }
  ],
  "materials": [
    {
      "alphaMode": "BLEND",
      "doubleSided": true,
      "extensions": {
        "KHR_materials_transmission": {
          "transmissionFactor": 0.95
        }
      },
      "name": "Glass",
      "pbrMetallicRoughness": {
        "baseColorFactor": [
          0.00457144250344382,
          0.00457144250344382,
          0.00457144250344382,
          0.25
        ],
        "metallicFactor": 0.14476234594238763,
        "roughnessFactor": 0.0750448001365338
      }
    },
    {
      "doubleSided": true,
      "name": "Card",
      "pbrMetallicRoughness": {
        "baseColorTexture": {
          "index": 0
        },
        "metallicFactor": 0.7969548097670393,
        "roughnessFactor": 0.8274310931233314
      }
    },
    {
      "doubleSided": true,
      "name": "Metal",
      "pbrMetallicRoughness": {
        "baseColorFactor": [
          0.025082467203465342,
          0.025082467203465342,
          0.025082467203465342,
          1.0
        ],
        "metallicFactor": 0.6019065962867696,
        "roughnessFactor": 0.20304519023296075
      }
    }
  ],
  "meshes": [
    {
      "name": "Glass_Geo1_Glass_0",
      "primitives": [
        {
          "attributes": {
            "NORMAL": 1,
            "POSITION": 0,
            "TEXCOORD_0": 2
          },
          "indices": 3,
          "material": 0,
          "mode": 4
        }
      ]
    },
    {
      "name": "Card_GEo1_Card_0",
      "primitives": [
        {
          "attributes": {
            "NORMAL": 5,
            "POSITION": 4,
            "TEXCOORD_0": 6
          },
          "indices": 7,
          "material": 1,
          "mode": 4
        }
      ]
    },
    {
      "name": "Screws_Geo1_Metal_0",
      "primitives": [
        {
          "attributes": {
            "NORMAL": 9,
            "POSITION": 8,
            "TEXCOORD_0": 10
          },
          "indices": 11,
          "material": 2,
          "mode": 4
        }
      ]
    }
  ],
  "nodes": [
    {
      "children": [
        1
      ],
      "matrix": [
        1.0,
        0.0,
        0.0,
        0.0,
        0.0,
        2.220446049250313e-16,
        -1.0,
        0.0,
        0.0,
        1.0,
        2.220446049250313e-16,
        0.0,
        0.0,
        0.0,
        0.0,
        1.0
      ],
      "name": "Sketchfab_model"
    },
    {
      "children": [
        2
      ],
      "matrix": [
        0.009999999776482582,
        0.0,
        0.0,
        0.0,
        0.0,
        0.0,
        0.009999999776482582,
        0.0,
        0.0,
        -0.009999999776482582,
        0.0,
        0.0,
        0.0,
        0.0,
        0.0,
        1.0
      ],
      "name": "3D Business Final.fbx"
    },
    {
      "children": [
        3
      ],
      "name": "RootNode"
    },
    {
      "children": [
        4,
        6,
        8
      ],
      "name": "Card_Export"
    },
    {
      "children": [
        5
      ],
      "matrix": [
        1.0,
        0.0,
        0.0,
        0.0,
        0.0,
        1.0,
        0.0,
        0.0,
        0.0,
        0.0,
        1.0,
        0.0,
        -4.440892098500626e-16,
        4.440892098500626e-16,
        0.0,
        1.0
      ],
      "name": "Glass_Geo1"
    },
    {
      "mesh": 0,
      "name": "Glass_Geo1_Glass_0"
    },
    {
      "children": [
        7
      ],
      "matrix": [
        -1.0,
        1.2246467991473532e-16,
        7.657137397853899e-16,
        0.0,
        1.2246467991473542e-16,
        1.0,
        1.2246467991473532e-16,
        0.0,
        -7.657137397853899e-16,
        1.2246467991473542e-16,
        -1.0,
        0.0,
        -1.1377989039829117e-06,
        4.440892098500626e-16,
        -0.01412715669721365,
        1.0
      ],
      "name": "Card_GEo1"
    },
    {
      "mesh": 1,
      "name": "Card_GEo1_Card_0"
    },
    {
      "children": [
        9
      ],
      "matrix": [
        1.0,
        0.0,
        0.0,
        0.0,
        0.0,
        1.0,
        0.0,
        0.0,
        0.0,
        0.0,
        1.0,
        0.0,
        0.0,
        4.440892098500626e-16,
        0.0,
        1.0
      ],
      "name": "Screws_Geo1"
    },
    {
      "mesh": 2,
      "name": "Screws_Geo1_Metal_0"
    }
  ],
  "samplers": [
    {
      "magFilter": 9729,
      "minFilter": 9987,
      "wrapS": 10497,
      "wrapT": 10497
    }
  ],
  "scene": 0,
  "scenes": [
    {
      "name": "Sketchfab_Scene",
      "nodes": [
        0
      ]
    }
  ],
  "textures": [
    {
      "sampler": 0,
      "source": 0
    }
  ]
}
